<svg width="20" height="20" viewBox="0 0 20 20" fill="none" xmlns="http://www.w3.org/2000/svg">
<path d="M17 14.673C16.3712 16.573 14.4888 19.9373 12.5496 19.974C11.2632 19.9998 10.8496 19.1798 9.3792 19.1798C7.9096 19.1798 7.4496 19.949 6.2336 19.999C4.176 20.0815 1 15.143 1 10.8362C1 6.88022 3.6464 4.91933 5.9584 4.88349C7.1984 4.86016 8.3696 5.75435 9.1256 5.75435C9.8848 5.75435 11.3072 4.67932 12.8024 4.83682C13.428 4.86432 15.1856 5.09933 16.3136 6.81772C13.3208 8.85279 13.7872 13.1088 17 14.673ZM12.8224 0C10.5616 0.0950031 8.7168 2.56592 8.9744 4.60932C11.064 4.77849 13.0688 2.33841 12.8224 0Z" fill="black"/>
</svg>
