<svg width="25" height="25" viewBox="0 0 25 25" fill="none" xmlns="http://www.w3.org/2000/svg">
<path d="M2 6.24999C2 6.53764 2.23319 6.77082 2.52083 6.77082H22.3125C22.6001 6.77082 22.8333 6.53764 22.8333 6.24999C22.8333 5.96234 22.6001 5.72916 22.3125 5.72916H2.52083C2.23319 5.72916 2 5.96234 2 6.24999ZM2.52083 13.0208C2.23319 13.0208 2 12.7876 2 12.5C2 12.2124 2.23319 11.9792 2.52083 11.9792H18.1458C18.4334 11.9792 18.6667 12.2124 18.6667 12.5C18.6667 12.7876 18.4334 13.0208 18.1458 13.0208H2.52083ZM2.52083 19.2708C2.23319 19.2708 2 19.0376 2 18.75C2 18.4624 2.23319 18.2292 2.52083 18.2292H22.3125C22.6001 18.2292 22.8333 18.4624 22.8333 18.75C22.8333 19.0376 22.6001 19.2708 22.3125 19.2708H2.52083Z" fill="black"/>
</svg>
