<svg width="80" height="21" viewBox="0 0 80 21" fill="none" xmlns="http://www.w3.org/2000/svg">
<path d="M73.1541 20.86C70.9141 20.86 69.1594 20.44 67.8901 19.6C66.6208 18.76 65.9861 17.64 65.9861 16.24H71.4461C71.4461 16.632 71.6048 16.9493 71.9221 17.192C72.2394 17.4347 72.6594 17.556 73.1821 17.556C73.5554 17.556 73.8541 17.472 74.0781 17.304C74.3208 17.1173 74.4421 16.8747 74.4421 16.576C74.4421 16.128 74.1248 15.82 73.4901 15.652L70.1861 14.896C68.9168 14.616 67.9368 14.1213 67.2461 13.412C66.5741 12.684 66.2381 11.7787 66.2381 10.696C66.2381 9.23999 66.8168 8.09199 67.9741 7.25199C69.1501 6.39332 70.7461 5.96399 72.7621 5.96399C75.0021 5.96399 76.7101 6.34666 77.8861 7.11199C79.0621 7.85866 79.6501 8.93199 79.6501 10.332H74.2461C74.2461 9.52932 73.7514 9.12799 72.7621 9.12799C72.4074 9.12799 72.1181 9.20266 71.8941 9.35199C71.6701 9.50132 71.5581 9.70666 71.5581 9.96799C71.5581 10.4907 71.9501 10.8453 72.7341 11.032L76.0101 11.872C78.5861 12.5253 79.8741 13.86 79.8741 15.876C79.8741 17.4067 79.2674 18.62 78.0541 19.516C76.8408 20.412 75.2074 20.86 73.1541 20.86Z" fill="black"/>
<path d="M58.4981 20.384V0.783997H63.9861V20.384H58.4981Z" fill="black"/>
<path d="M51.0101 20.384V0.783997H56.4981V20.384H51.0101Z" fill="black"/>
<path d="M45.9581 5.992C45.0808 5.992 44.3528 5.70267 43.7741 5.124C43.1954 4.52667 42.9061 3.81733 42.9061 2.996C42.9061 2.156 43.1954 1.44667 43.7741 0.868001C44.3528 0.289334 45.0808 0 45.9581 0C46.8168 0 47.5354 0.289334 48.1141 0.868001C48.7114 1.44667 49.0101 2.156 49.0101 2.996C49.0101 3.81733 48.7114 4.52667 48.1141 5.124C47.5354 5.70267 46.8168 5.992 45.9581 5.992ZM43.2141 20.384V6.468H48.7021V20.384H43.2141Z" fill="black"/>
<path d="M38.8541 5.992C37.9768 5.992 37.2488 5.70267 36.6701 5.124C36.0914 4.52667 35.8021 3.81733 35.8021 2.996C35.8021 2.156 36.0914 1.44667 36.6701 0.868001C37.2488 0.289334 37.9768 0 38.8541 0C39.7128 0 40.4314 0.289334 41.0101 0.868001C41.6074 1.44667 41.9061 2.156 41.9061 2.996C41.9061 3.81733 41.6074 4.52667 41.0101 5.124C40.4314 5.70267 39.7128 5.992 38.8541 5.992ZM36.1101 20.384V6.468H41.5981V20.384H36.1101Z" fill="black"/>
<path d="M34.1 20.384H27.632L23.852 14.616V20.384H18.364V0.783997H23.852V11.956L27.716 6.468H33.932L28.864 12.992L34.1 20.384Z" fill="black"/>
<path d="M8.35883 21C5.8015 21 3.7855 20.384 2.31083 19.152C0.854831 17.9013 0.126831 16.1747 0.126831 13.972H5.95083C5.95083 14.812 6.1655 15.4747 6.59483 15.96C7.04283 16.4453 7.65883 16.688 8.44283 16.688C9.7495 16.688 10.4028 16.1467 10.4028 15.064C10.4028 14.616 10.2628 14.2613 9.98283 14C9.70283 13.72 9.22683 13.4493 8.55483 13.188L4.66283 11.76C1.86283 10.7147 0.462831 8.86667 0.462831 6.216C0.462831 4.38667 1.14416 2.92133 2.50683 1.82C3.88816 0.718666 5.76416 0.167999 8.13483 0.167999C10.5242 0.167999 12.4282 0.727999 13.8468 1.848C15.2842 2.968 16.0028 4.49867 16.0028 6.44H10.1788C10.1788 5.712 9.99217 5.152 9.61883 4.76C9.26417 4.34933 8.75083 4.144 8.07883 4.144C7.5375 4.144 7.10817 4.27467 6.79083 4.536C6.4735 4.79733 6.31483 5.16133 6.31483 5.628C6.31483 6.02 6.4735 6.36533 6.79083 6.664C7.10817 6.944 7.66816 7.23333 8.47083 7.532L12.0548 8.904C14.8362 9.98667 16.2268 11.872 16.2268 14.56C16.2268 16.5387 15.5175 18.1067 14.0988 19.264C12.6802 20.4213 10.7668 21 8.35883 21Z" fill="black"/>
</svg>
