<svg width="32" height="32" viewBox="0 0 32 32" fill="none" xmlns="http://www.w3.org/2000/svg">
<g clip-path="url(#clip0_231_81)">
<mask id="mask0_231_81" style="mask-type:luminance" maskUnits="userSpaceOnUse" x="0" y="0" width="32" height="32">
<path d="M15.9781 0C24.8027 0 31.9561 7.15337 31.9561 15.9781C31.9561 24.8027 24.8027 31.9561 15.9781 31.9561C7.15337 31.9561 0 24.8027 0 15.9781C0 7.15337 7.15337 0 15.9781 0Z" fill="white"/>
</mask>
<g mask="url(#mask0_231_81)">
<path d="M15.9781 31.9561C24.8025 31.9561 31.9561 24.8025 31.9561 15.9781C31.9561 7.15362 24.8025 0 15.9781 0C7.15362 0 0 7.15362 0 15.9781C0 24.8025 7.15362 31.9561 15.9781 31.9561Z" fill="white"/>
<path d="M5.76734 11.9342C5.67409 11.9095 5.57352 11.8784 5.48666 11.841C5.3934 11.8035 5.30563 11.766 5.21786 11.7221C5.13009 11.6782 5.04323 11.6288 4.96186 11.5786C4.88049 11.5283 4.80003 11.4725 4.71866 11.4103C4.63729 11.3546 4.56232 11.2851 4.49374 11.2229C4.41877 11.1543 4.3502 11.0858 4.28803 11.0108C4.22586 10.9358 4.16277 10.8608 4.1006 10.7795C4.03843 10.6981 3.98814 10.6176 3.93877 10.5299C3.8894 10.4421 3.84552 10.3552 3.80163 10.2611C3.75774 10.1669 3.72026 10.0736 3.68917 9.98039C3.65809 9.88713 3.627 9.78656 3.6078 9.6805C3.23934 8.05124 4.29443 6.42838 5.96666 6.04164C7.6398 5.6549 9.30563 6.6469 9.69877 8.26336" fill="#494F4B"/>
<path d="M5.76732 12.184C5.74629 12.184 5.72435 12.1813 5.7024 12.1758C5.58172 12.1438 5.47566 12.1081 5.38789 12.0706C5.27818 12.0268 5.1904 11.9874 5.10629 11.9454C5.01943 11.9024 4.92709 11.8503 4.83109 11.7909C4.74423 11.7378 4.65738 11.6775 4.57143 11.6117C4.48092 11.5486 4.40138 11.4764 4.33189 11.4124C4.23315 11.3218 4.16 11.2469 4.09692 11.1701C4.032 11.0924 3.968 11.0156 3.904 10.9314C3.8272 10.8318 3.7696 10.7349 3.72298 10.6535C3.67452 10.5685 3.6288 10.4798 3.57578 10.3673C3.52823 10.2658 3.48709 10.1625 3.45326 10.0601C3.41943 9.95865 3.3856 9.84893 3.36458 9.73099C2.97143 7.9783 4.11338 6.21556 5.91269 5.79956C7.71109 5.38356 9.51955 6.46242 9.94378 8.20596C9.97669 8.34036 9.89441 8.47476 9.76001 8.50768C9.62652 8.54059 9.49121 8.4583 9.45829 8.3239C9.09898 6.8455 7.55841 5.93122 6.02515 6.28596C4.49098 6.6407 3.51726 8.13922 3.8528 9.62676C3.8528 9.63042 3.85463 9.63499 3.85555 9.63865C3.872 9.7319 3.90126 9.82333 3.92778 9.90287C3.95612 9.98699 3.98995 10.0729 4.02926 10.157C4.07589 10.2567 4.1152 10.3344 4.15726 10.4066C4.19749 10.477 4.24229 10.5529 4.3008 10.6279C4.36115 10.7065 4.42149 10.7788 4.48183 10.851C4.5312 10.9095 4.5888 10.9698 4.66469 11.0393C4.73235 11.1006 4.79726 11.16 4.86309 11.2057C4.86675 11.2085 4.86949 11.2103 4.87315 11.213C4.9472 11.2697 5.02126 11.3218 5.09532 11.3666C5.17852 11.4178 5.25806 11.4626 5.33212 11.4992C5.40343 11.5349 5.48023 11.5687 5.58172 11.6089C5.65303 11.6391 5.73623 11.6665 5.83406 11.693C5.96755 11.7287 6.04618 11.8658 6.01052 11.9984C5.98035 12.11 5.87978 12.184 5.76915 12.184H5.76732Z" fill="white"/>
<path d="M26.1897 11.9342C26.283 11.9095 26.3836 11.8784 26.4704 11.8409C26.5637 11.8034 26.6514 11.766 26.7392 11.7221C26.827 11.6782 26.9138 11.6288 26.9952 11.5785C27.0766 11.5282 27.157 11.4725 27.2384 11.4103C27.3198 11.3545 27.3948 11.285 27.4633 11.2229C27.5383 11.1543 27.6069 11.0857 27.669 11.0108C27.7312 10.9358 27.7943 10.8608 27.8565 10.7794C27.9186 10.6981 27.9689 10.6176 28.0183 10.5298C28.0686 10.4421 28.1116 10.3552 28.1554 10.261C28.1993 10.1669 28.2368 10.0736 28.2679 9.98035C28.299 9.8871 28.3301 9.78653 28.3493 9.68047C28.7177 8.05121 27.6626 6.42835 25.9904 6.04161C24.3173 5.65487 22.6514 6.64687 22.2583 8.26333" fill="#494F4B"/>
<path d="M26.1888 12.1838C26.0782 12.1838 25.9776 12.1097 25.9474 11.9982C25.9118 11.8647 25.9913 11.7285 26.1239 11.6928C26.2217 11.6663 26.3049 11.6389 26.3707 11.6105C26.4777 11.5676 26.5545 11.5337 26.6258 11.4981C26.699 11.4615 26.7785 11.4167 26.8626 11.3655C26.9358 11.3198 27.0107 11.2686 27.0848 11.2119C27.0885 11.2092 27.0912 11.2073 27.0949 11.2046C27.1598 11.1598 27.2247 11.1004 27.2878 11.0437C27.3691 10.9696 27.4267 10.9093 27.4761 10.8508C27.5365 10.7785 27.5968 10.7054 27.6571 10.6277C27.7147 10.5527 27.7605 10.4768 27.8007 10.4064C27.8427 10.3333 27.8821 10.2565 27.9287 10.1559C27.968 10.0718 28.0018 9.98584 28.0302 9.90173C28.0567 9.8231 28.0859 9.73076 28.1024 9.6375C28.1024 9.63384 28.1042 9.63018 28.1051 9.62561C28.4416 8.13807 27.467 6.63956 25.9328 6.28481C24.3986 5.93007 22.859 6.84436 22.4997 8.32276C22.4667 8.45716 22.3323 8.53944 22.1979 8.50653C22.0645 8.47361 21.9822 8.33921 22.0142 8.20481C22.4384 6.46218 24.2469 5.38241 26.0453 5.79841C27.8437 6.21441 28.9856 7.97716 28.5934 9.72984C28.5723 9.84778 28.5376 9.9575 28.5047 10.059C28.4709 10.1614 28.4288 10.2647 28.3822 10.3662C28.3291 10.4796 28.2843 10.5673 28.235 10.6533C28.1883 10.7346 28.1307 10.8316 28.0539 10.9312C27.989 11.0153 27.925 11.0921 27.8601 11.1698C27.7961 11.2466 27.7239 11.3216 27.6315 11.4066C27.6315 11.4066 27.6251 11.413 27.6242 11.413C27.5547 11.477 27.4752 11.5484 27.3856 11.6114C27.2997 11.6773 27.2128 11.7376 27.1259 11.7906C27.0299 11.8501 26.9367 11.9022 26.8507 11.9452C26.7666 11.9872 26.6779 12.0265 26.5637 12.0722C26.4814 12.1079 26.3753 12.1426 26.2546 12.1756C26.2327 12.181 26.2117 12.1838 26.1897 12.1838H26.1888Z" fill="white"/>
<path d="M8.98744 26.1897C7.3143 27.9744 4.0439 31.1269 5.16116 34.4905C5.25441 34.7776 5.51681 35.19 5.75453 35.371C6.51613 35.9698 7.28961 35.8949 7.95156 35.4642" fill="#494F4B"/>
<path d="M6.90287 36.053C6.45395 36.053 6.01144 35.8903 5.60093 35.5666C5.31018 35.3445 5.02858 34.8837 4.92527 34.5682C3.83087 31.2713 6.74104 28.2002 8.48001 26.3644C8.5943 26.2437 8.7031 26.1285 8.80641 26.0188C8.90058 25.9182 9.05875 25.9127 9.15933 26.0069C9.2599 26.101 9.26538 26.2592 9.1703 26.3598C9.06698 26.4704 8.95635 26.5865 8.84207 26.7072C7.1799 28.4617 4.39773 31.3975 5.39887 34.411C5.4839 34.6716 5.72527 35.0336 5.9063 35.1717C6.51887 35.6535 7.15978 35.6809 7.81533 35.2549C7.93053 35.1799 8.08595 35.2128 8.16093 35.328C8.2359 35.4432 8.20298 35.5986 8.08778 35.6736C7.69921 35.9269 7.29784 36.053 6.90287 36.053Z" fill="white"/>
<path d="M22.9751 26.1523C24.6482 27.9369 27.893 31.1205 26.7703 34.4969C26.677 34.784 26.4146 35.1964 26.1769 35.3774C25.4153 35.9763 24.6418 35.9013 23.9799 35.4707" fill="#494F4B"/>
<path d="M25.0295 36.0594C24.6336 36.0594 24.2332 35.9333 23.8437 35.68C23.7285 35.605 23.6956 35.4505 23.7706 35.3344C23.8455 35.2192 24 35.1863 24.1162 35.2613C24.7717 35.6873 25.4126 35.6608 26.0224 35.1808C26.2062 35.0409 26.4476 34.6789 26.5326 34.4192C27.5502 31.36 24.7452 28.3904 23.0693 26.6158C22.9733 26.5143 22.881 26.4165 22.7932 26.3223C22.699 26.2217 22.7036 26.0636 22.8042 25.9694C22.9047 25.8752 23.0629 25.8807 23.1571 25.9813C23.2448 26.0745 23.3363 26.1724 23.4323 26.2729C25.185 28.1289 28.118 31.2348 27.0071 34.5756C26.9047 34.8901 26.6222 35.3509 26.3287 35.5749C25.9191 35.8967 25.4784 36.0585 25.0304 36.0585L25.0295 36.0594Z" fill="white"/>
<path d="M19.5109 37.8487C19.349 37.8798 19.1863 37.9045 19.0245 37.9301C18.8626 37.9557 18.6999 37.9739 18.5381 37.9986C18.3762 38.0233 18.2135 38.0361 18.0453 38.0489C17.877 38.0617 17.7207 38.08 17.5525 38.0864C17.3906 38.0992 17.2279 38.1047 17.0597 38.1111C16.8978 38.1175 16.7287 38.1239 16.5669 38.1239H15.3938C15.2311 38.1239 15.0629 38.1175 14.901 38.1111C14.7392 38.1047 14.5701 38.0928 14.4082 38.0864C14.2464 38.0736 14.0837 38.0617 13.9154 38.0489C13.7536 38.0361 13.5909 38.0178 13.4226 37.9986C13.2544 37.9794 13.0981 37.9547 12.9362 37.9301C12.7744 37.9054 12.6117 37.8798 12.4498 37.8487C12.288 37.8176 12.1253 37.7865 11.9634 37.7554C4.13624 35.1406 7.89396 30.1038 9.01121 26.1586C5.7655 24.7918 2.55087 21.5278 4.61716 16.7899C4.60436 11.4158 8.33098 7.03452 15.9772 6.87817C23.6233 7.02812 27.349 11.4158 27.3372 16.7899C29.4034 21.5333 26.1888 24.7982 22.9431 26.1586C24.0046 29.8971 27.4432 34.6222 21.1081 37.3312C20.5029 37.5872 19.7788 37.7993 19.5045 37.8496H19.5173L19.5109 37.8487Z" fill="white"/>
<path d="M16.565 38.3726H15.392C15.2201 38.3726 15.0363 38.3653 14.8891 38.3598C14.8068 38.357 14.7218 38.3515 14.6377 38.347C14.5563 38.3424 14.475 38.3378 14.3954 38.3351C14.3927 38.3351 14.389 38.3351 14.3863 38.3351L14.3396 38.3314C14.1934 38.3205 14.0462 38.3086 13.8935 38.2976C13.7435 38.2857 13.5982 38.2702 13.4446 38.2528L13.3915 38.2473C13.2352 38.2299 13.088 38.2071 12.9454 38.1851L12.8951 38.1769C12.7342 38.1522 12.5678 38.1266 12.3986 38.0946L11.9122 38.0014C11.9012 37.9995 11.8903 37.9968 11.8802 37.9931C9.4665 37.1867 7.96433 36.1006 7.28776 34.6734C6.33324 32.6574 7.19633 30.3881 8.03199 28.1929C8.28342 27.5337 8.52113 26.9065 8.7049 26.3013C6.52159 25.3303 4.8649 23.7504 4.1417 21.941C3.49713 20.3301 3.5721 18.581 4.36296 16.7397C4.36844 13.9154 5.36593 11.4816 7.24844 9.69783C9.2873 7.76594 12.3026 6.70537 15.9671 6.6304C15.9707 6.6304 15.9735 6.6304 15.9771 6.6304C19.6407 6.70172 22.656 7.76229 24.6958 9.69509C26.5783 11.4798 27.5758 13.9145 27.5812 16.7397C28.373 18.5856 28.4471 20.3392 27.7998 21.952C27.0747 23.7595 25.419 25.3358 23.2393 26.3013C23.4231 26.9056 23.6617 27.5319 23.9122 28.1902C24.5495 29.8615 25.2078 31.5895 25.0505 33.2251C24.8686 35.1131 23.6087 36.5321 21.2004 37.5616C20.6034 37.8139 19.9113 38.0197 19.5931 38.0855C19.5822 38.0891 19.5703 38.0928 19.5584 38.0946C19.3911 38.1266 19.2238 38.1522 19.0628 38.1769C18.9806 38.1897 18.8974 38.2007 18.8151 38.2117C18.7355 38.2226 18.656 38.2327 18.5764 38.2455C18.411 38.2711 18.2528 38.2839 18.0635 38.2976C18.0059 38.3022 17.9492 38.3067 17.8935 38.3122C17.7883 38.3214 17.6804 38.3314 17.5662 38.336C17.3943 38.3488 17.2215 38.3552 17.0679 38.3616C16.9207 38.3671 16.7378 38.3744 16.565 38.3744V38.3726ZM14.4201 37.8368C14.5015 37.8395 14.5838 37.845 14.666 37.8496C14.7474 37.8542 14.8288 37.8587 14.9083 37.8615C15.0583 37.867 15.2292 37.8734 15.392 37.8734H16.565C16.7278 37.8734 16.8978 37.867 17.0487 37.8615C17.1986 37.856 17.3687 37.8496 17.5323 37.8368C17.536 37.8368 17.5387 37.8368 17.5424 37.8368C17.6457 37.8331 17.7444 37.824 17.8487 37.8149C17.9072 37.8094 17.9657 37.8048 18.026 37.8002C18.2043 37.7874 18.3524 37.7755 18.4996 37.7527C18.5828 37.7399 18.6651 37.7289 18.7483 37.7179C18.8279 37.707 18.9074 37.6969 18.987 37.6841C19.1287 37.6622 19.275 37.6393 19.4194 37.6128C19.4304 37.6091 19.4423 37.6064 19.4542 37.6037C19.7147 37.5561 20.4169 37.3504 21.0057 37.1017C25.9675 34.9806 24.6857 31.6187 23.4468 28.3685C23.1625 27.6224 22.8937 26.9184 22.698 26.2281C22.6633 26.1065 22.7255 25.9785 22.8416 25.9301C25.0002 25.0249 26.6386 23.5081 27.3371 21.7664C27.9387 20.2679 27.8601 18.6277 27.1031 16.8914C27.0894 16.8594 27.082 16.8256 27.082 16.7909C27.0884 14.0846 26.144 11.7568 24.352 10.0581C22.4046 8.21212 19.5072 7.2 15.9726 7.1296C12.437 7.20275 9.53873 8.21577 7.59222 10.0599C5.80022 11.7577 4.85576 14.0855 4.86216 16.7909C4.86216 16.8256 4.85484 16.8594 4.84113 16.8914C4.08593 18.6231 4.00639 20.2597 4.60524 21.7563C5.30193 23.499 6.94124 25.0203 9.10353 25.9301C9.21964 25.9794 9.2809 26.1065 9.24707 26.2281C9.05142 26.9193 8.78262 27.6242 8.49919 28.3712C7.70102 30.4686 6.87633 32.6363 7.73942 34.4603C8.3529 35.755 9.75359 36.7543 12.0228 37.515L12.4937 37.6055C12.6528 37.6357 12.8146 37.6613 12.971 37.685L13.0222 37.6933C13.1657 37.7152 13.3019 37.7362 13.4473 37.7527L13.5003 37.7582C13.6494 37.7746 13.7911 37.7902 13.9319 37.8011C14.0836 37.8121 14.2318 37.824 14.378 37.835L14.4201 37.8386V37.8368Z" fill="#010000"/>
<path d="M9.77466 15.1479C10.1367 14.3927 10.9047 13.8624 11.8035 13.8432C12.6272 13.8249 13.3641 14.2363 13.7884 14.8727C14.1751 15.4533 14.3379 16.6455 14.2254 17.3321C14.144 17.8249 13.7573 18.9678 13.0835 19.5977C12.5532 20.0905 11.8784 20.4215 11.1671 20.4279C10.2684 20.4343 9.48209 19.9287 9.09534 19.1854C8.82654 18.667 8.82106 17.6622 9.05146 17.1255C9.28277 16.5824 9.52597 15.6773 9.77557 15.1534V15.147L9.77466 15.1479Z" fill="#494F4B"/>
<path d="M12.7699 17.7326C12.3457 17.7326 11.9955 17.3952 11.99 16.971C11.9845 16.5467 12.321 16.1911 12.7452 16.1847C13.1694 16.1783 13.5251 16.5093 13.5379 16.9463C13.5379 17.3833 13.195 17.7326 12.7699 17.7326Z" fill="white"/>
<path d="M22.1888 15.1479C21.8268 14.3927 21.0588 13.8624 20.16 13.8432C19.3363 13.8249 18.5994 14.2363 18.1751 14.8727C17.7884 15.4533 17.6256 16.6455 17.7381 17.3321C17.8195 17.8249 18.2062 18.9678 18.88 19.5977C19.4103 20.0905 20.0851 20.4215 20.7964 20.4279C21.6951 20.4343 22.4814 19.9287 22.8682 19.1854C23.137 18.667 23.1424 17.6622 22.912 17.1255C22.6807 16.5824 22.4375 15.6773 22.1879 15.1534V15.147L22.1888 15.1479Z" fill="#494F4B"/>
<path d="M19.1863 17.557C19.6106 17.557 19.9607 17.2197 19.9662 16.7954C19.9717 16.3712 19.6352 16.0155 19.211 16.0091C18.7868 15.9963 18.4311 16.3337 18.4183 16.7707C18.4183 17.2078 18.7612 17.557 19.1863 17.557Z" fill="white"/>
<path d="M15.9781 21.3961C15.84 21.3961 15.7285 21.2846 15.7285 21.1465V19.9671C15.7285 19.829 15.84 19.7175 15.9781 19.7175C16.1161 19.7175 16.2277 19.829 16.2277 19.9671V21.1465C16.2277 21.2846 16.1161 21.3961 15.9781 21.3961Z" fill="#494F4B"/>
<path d="M15.9753 21.3779C15.7742 21.3779 15.5493 21.3431 15.3015 21.2489C15.1726 21.1996 15.1086 21.0551 15.158 20.9262C15.2073 20.7973 15.3518 20.7333 15.4807 20.7827C15.819 20.9125 16.1198 20.9116 16.4873 20.7808C16.6172 20.7342 16.7598 20.8019 16.8064 20.9317C16.853 21.0615 16.7854 21.2041 16.6556 21.2508C16.4818 21.3129 16.2524 21.3779 15.9762 21.3779H15.9753Z" fill="#494F4B"/>
<path d="M15.6352 19.3362C15.8665 19.3609 16.0905 19.3609 16.3218 19.3362C16.5403 19.3116 16.7214 19.5109 16.7214 19.7358C16.7214 19.9607 16.5029 20.1289 16.3218 20.2167C16.1097 20.3164 15.8912 20.373 15.6352 20.2167C15.4542 20.1106 15.2357 19.9543 15.2357 19.7358C15.2357 19.5173 15.4167 19.318 15.6352 19.3362Z" fill="#494F4B"/>
</g>
</g>
<defs>
<clipPath id="clip0_231_81">
<rect width="32" height="32" fill="white"/>
</clipPath>
</defs>
</svg>
