<svg width="24" height="25" viewBox="0 0 24 25" fill="none" xmlns="http://www.w3.org/2000/svg">
<path d="M10.0003 17.4998C10.9196 17.4998 11.8298 17.3188 12.6791 16.967C13.5284 16.6152 14.3 16.0996 14.95 15.4496C15.6001 14.7996 16.1157 14.0279 16.4675 13.1786C16.8192 12.3293 17.0003 11.4191 17.0003 10.4998C17.0003 9.58059 16.8192 8.67034 16.4675 7.82106C16.1157 6.97178 15.6001 6.2001 14.95 5.55009C14.3 4.90008 13.5284 4.38447 12.6791 4.03269C11.8298 3.6809 10.9196 3.49984 10.0003 3.49984C8.14378 3.49984 6.36331 4.23734 5.05055 5.55009C3.7378 6.86285 3.0003 8.64333 3.0003 10.4998C3.0003 12.3564 3.7378 14.1368 5.05055 15.4496C6.36331 16.7623 8.14378 17.4998 10.0003 17.4998ZM16.0003 15.7918L21.8543 21.6458C21.9008 21.6923 21.9377 21.7475 21.9628 21.8083C21.988 21.869 22.0009 21.9341 22.0009 21.9998C22.0009 22.0656 21.988 22.1307 21.9628 22.1914C21.9377 22.2522 21.9008 22.3074 21.8543 22.3538C21.8078 22.4003 21.7526 22.4372 21.6919 22.4624C21.6311 22.4875 21.566 22.5005 21.5003 22.5005C21.4346 22.5005 21.3695 22.4875 21.3087 22.4624C21.248 22.4372 21.1928 22.4003 21.1463 22.3538L15.2923 16.4988C13.7337 17.8738 11.7011 18.5882 9.62495 18.4907C7.54881 18.3933 5.59208 17.4917 4.16908 15.9768C2.74607 14.4619 1.96849 12.4527 2.00098 10.3745C2.03347 8.29631 2.87348 6.31236 4.34315 4.84269C5.81282 3.37302 7.79677 2.53301 9.87494 2.50052C11.9531 2.46803 13.9624 3.24561 15.4773 4.66862C16.9921 6.09163 17.8938 8.04835 17.9912 10.1245C18.0886 12.2006 17.3743 14.2332 15.9993 15.7918H16.0003Z" fill="black"/>
</svg>
